<?xml version="1.0" encoding="UTF-8" standalone="no"?>
<!DOCTYPE svg PUBLIC "-//W3C//DTD SVG 1.1//EN"
 "http://www.w3.org/Graphics/SVG/1.1/DTD/svg11.dtd">
<!-- Generated by graphviz version 2.43.0 (0)
 -->
<!-- Title: doxygraph Pages: 1 -->
<svg width="1175pt" height="301pt"
 viewBox="0.00 0.00 1175.00 301.11" xmlns="http://www.w3.org/2000/svg" xmlns:xlink="http://www.w3.org/1999/xlink">
<g id="graph0" class="graph" transform="scale(1 1) rotate(0) translate(4 297.11)">
<title>doxygraph</title>
<polygon fill="white" stroke="transparent" points="-4,4 -4,-297.11 1171,-297.11 1171,4 -4,4"/>
<!-- class_boid -->
<g id="node1" class="node">
<title>class_boid</title>
<polygon fill="#f2f2f2" stroke="black" points="1073.5,-50.61 1073.5,-86.61 1162.5,-86.61 1162.5,-50.61 1073.5,-50.61"/>
<text text-anchor="middle" x="1118" y="-64.91" font-family="Times,serif" font-size="14.00">class_boid</text>
</g>
<!-- class_alt_sprite_holder -->
<g id="node2" class="node">
<title>class_alt_sprite_holder</title>
<polygon fill="#f2f2f2" stroke="black" points="627.5,-142.61 627.5,-178.61 806.5,-178.61 806.5,-142.61 627.5,-142.61"/>
<text text-anchor="middle" x="717" y="-156.91" font-family="Times,serif" font-size="14.00">class_alt_sprite_holder</text>
</g>
<!-- class_boid&#45;&gt;class_alt_sprite_holder -->
<g id="edge1" class="edge">
<title>class_boid&#45;&gt;class_alt_sprite_holder</title>
<path fill="none" stroke="black" d="M1096.34,-96.12C1084.63,-109.55 1068.77,-124.52 1051,-132.61 1048.22,-133.87 904.41,-145.64 806.71,-153.51"/>
<polygon fill="none" stroke="black" points="1096.46,-95.98 1097.2,-88.81 1104.11,-86.74 1103.36,-93.91 1096.46,-95.98"/>
<text text-anchor="middle" x="943" y="-153.41" font-family="Times,serif" font-size="14.00">shared_ptr</text>
</g>
<!-- class_flock -->
<g id="node3" class="node">
<title>class_flock</title>
<polygon fill="#f2f2f2" stroke="black" points="671,-24.61 671,-60.61 763,-60.61 763,-24.61 671,-24.61"/>
<text text-anchor="middle" x="717" y="-38.91" font-family="Times,serif" font-size="14.00">class_flock</text>
</g>
<!-- class_boid&#45;&gt;class_flock -->
<g id="edge2" class="edge">
<title>class_boid&#45;&gt;class_flock</title>
<path fill="none" stroke="black" d="M1091.68,-42.11C1080.32,-32.08 1066.08,-21.83 1051,-16.61 952.65,17.48 828.5,-9.02 763.09,-27.9"/>
<polygon fill="none" stroke="black" points="1091.75,-42.17 1098.86,-43.35 1100.51,-50.37 1093.4,-49.19 1091.75,-42.17"/>
<text text-anchor="middle" x="943" y="-20.41" font-family="Times,serif" font-size="14.00">parent</text>
</g>
<!-- class_pvector -->
<g id="node4" class="node">
<title>class_pvector</title>
<polygon fill="#f2f2f2" stroke="black" points="660.5,-79.61 660.5,-115.61 773.5,-115.61 773.5,-79.61 660.5,-79.61"/>
<text text-anchor="middle" x="717" y="-93.91" font-family="Times,serif" font-size="14.00">class_pvector</text>
</g>
<!-- class_boid&#45;&gt;class_pvector -->
<g id="edge3" class="edge">
<title>class_boid&#45;&gt;class_pvector</title>
<path fill="none" stroke="black" d="M1061.02,-72.68C984.93,-78.21 849.67,-88.04 773.72,-93.56"/>
<polygon fill="black" stroke="black" points="1061.19,-72.66 1066.88,-68.24 1073.16,-71.79 1067.46,-76.22 1061.19,-72.66"/>
</g>
<!-- class_flock&#45;&gt;class_boid -->
<g id="edge5" class="edge">
<title>class_flock&#45;&gt;class_boid</title>
<path fill="none" stroke="black" d="M775.44,-41.67C842,-41.28 954.85,-42.77 1051,-54.61 1058.21,-55.49 1065.8,-56.77 1073.16,-58.2"/>
<polygon fill="none" stroke="black" points="775.17,-41.67 769.2,-45.72 763.17,-41.77 769.14,-37.72 775.17,-41.67"/>
<text text-anchor="middle" x="943" y="-58.41" font-family="Times,serif" font-size="14.00">vector&lt;vector&lt;shared_ptr&gt;&gt;</text>
</g>
<!-- class_boid_config -->
<g id="node5" class="node">
<title>class_boid_config</title>
<polygon fill="#f2f2f2" stroke="black" points="293,-188.61 293,-224.61 432,-224.61 432,-188.61 293,-188.61"/>
<text text-anchor="middle" x="362.5" y="-202.91" font-family="Times,serif" font-size="14.00">class_boid_config</text>
</g>
<!-- class_flock&#45;&gt;class_boid_config -->
<g id="edge6" class="edge">
<title>class_flock&#45;&gt;class_boid_config</title>
<path fill="none" stroke="black" d="M658.95,-55.77C645.02,-59.63 630.3,-64.28 617,-69.61 531.32,-103.92 437.47,-159.93 391.73,-188.54"/>
<polygon fill="none" stroke="black" points="659.34,-55.67 664.1,-50.26 670.93,-52.57 666.17,-57.99 659.34,-55.67"/>
<text text-anchor="middle" x="525.5" y="-152.41" font-family="Times,serif" font-size="14.00">shared_ptr</text>
</g>
<!-- class_thread_pool -->
<g id="node7" class="node">
<title>class_thread_pool</title>
<polygon fill="#f2f2f2" stroke="black" points="291,-24.61 291,-60.61 434,-60.61 434,-24.61 291,-24.61"/>
<text text-anchor="middle" x="362.5" y="-38.91" font-family="Times,serif" font-size="14.00">class_thread_pool</text>
</g>
<!-- class_flock&#45;&gt;class_thread_pool -->
<g id="edge7" class="edge">
<title>class_flock&#45;&gt;class_thread_pool</title>
<path fill="none" stroke="black" d="M658.86,-42.61C597.57,-42.61 500.14,-42.61 434.09,-42.61"/>
<polygon fill="black" stroke="black" points="659,-42.61 665,-38.61 671,-42.61 665,-46.61 659,-42.61"/>
</g>
<!-- classcpptoml_1_1table -->
<g id="node6" class="node">
<title>classcpptoml_1_1table</title>
<polygon fill="#f2f2f2" stroke="black" points="0,-188.61 0,-224.61 177,-224.61 177,-188.61 0,-188.61"/>
<text text-anchor="middle" x="88.5" y="-202.91" font-family="Times,serif" font-size="14.00">classcpptoml_1_1table</text>
</g>
<!-- class_boid_config&#45;&gt;classcpptoml_1_1table -->
<g id="edge4" class="edge">
<title>class_boid_config&#45;&gt;classcpptoml_1_1table</title>
<path fill="none" stroke="black" d="M280.65,-206.61C248.07,-206.61 210.42,-206.61 177.19,-206.61"/>
<polygon fill="none" stroke="black" points="280.86,-206.61 286.86,-202.61 292.86,-206.61 286.86,-210.61 280.86,-206.61"/>
<text text-anchor="middle" x="234" y="-210.41" font-family="Times,serif" font-size="14.00">shared_ptr</text>
</g>
<!-- class_game -->
<g id="node8" class="node">
<title>class_game</title>
<polygon fill="#f2f2f2" stroke="black" points="1069,-189.61 1069,-225.61 1167,-225.61 1167,-189.61 1069,-189.61"/>
<text text-anchor="middle" x="1118" y="-203.91" font-family="Times,serif" font-size="14.00">class_game</text>
</g>
<!-- class_game&#45;&gt;class_alt_sprite_holder -->
<g id="edge8" class="edge">
<title>class_game&#45;&gt;class_alt_sprite_holder</title>
<path fill="none" stroke="black" d="M1056.77,-194.55C1054.83,-194.22 1052.9,-193.9 1051,-193.61 1005.58,-186.56 889.06,-175.62 806.71,-168.28"/>
<polygon fill="none" stroke="black" points="1057.01,-194.59 1063.63,-191.73 1068.81,-196.74 1062.19,-199.6 1057.01,-194.59"/>
<text text-anchor="middle" x="943" y="-197.41" font-family="Times,serif" font-size="14.00">shared_ptr</text>
</g>
<!-- class_game&#45;&gt;class_flock -->
<g id="edge10" class="edge">
<title>class_game&#45;&gt;class_flock</title>
<path fill="none" stroke="black" d="M1104.09,-178.41C1093.09,-157.03 1075.21,-129.15 1051,-113.61 968.85,-60.85 930.26,-95.01 835,-73.61 811.12,-68.24 784.74,-61.34 763.09,-55.41"/>
<polygon fill="none" stroke="black" points="1104.24,-178.7 1110.46,-182.35 1109.49,-189.49 1103.27,-185.85 1104.24,-178.7"/>
<text text-anchor="middle" x="943" y="-117.41" font-family="Times,serif" font-size="14.00">shared_ptr</text>
</g>
<!-- class_game&#45;&gt;class_boid_config -->
<g id="edge11" class="edge">
<title>class_game&#45;&gt;class_boid_config</title>
<path fill="none" stroke="black" d="M1056.44,-208.56C1054.61,-208.58 1052.79,-208.59 1051,-208.61 824.52,-210.32 556.07,-208.4 432.3,-207.28"/>
<polygon fill="none" stroke="black" points="1056.7,-208.56 1062.66,-204.49 1068.7,-208.42 1062.75,-212.49 1056.7,-208.56"/>
<text text-anchor="middle" x="717" y="-212.41" font-family="Times,serif" font-size="14.00">shared_ptr</text>
</g>
<!-- class_obstacles_container -->
<g id="node9" class="node">
<title>class_obstacles_container</title>
<polygon fill="#f2f2f2" stroke="black" points="617,-256.61 617,-292.61 817,-292.61 817,-256.61 617,-256.61"/>
<text text-anchor="middle" x="717" y="-270.91" font-family="Times,serif" font-size="14.00">class_obstacles_container</text>
</g>
<!-- class_game&#45;&gt;class_obstacles_container -->
<g id="edge9" class="edge">
<title>class_game&#45;&gt;class_obstacles_container</title>
<path fill="none" stroke="black" d="M1069.52,-230.47C1063.38,-232.83 1057.11,-234.96 1051,-236.61 974.04,-257.39 884.08,-266.82 817.08,-271.08"/>
<polygon fill="none" stroke="black" points="1069.96,-230.29 1073.98,-224.31 1081.05,-225.73 1077.03,-231.71 1069.96,-230.29"/>
<text text-anchor="middle" x="943" y="-272.41" font-family="Times,serif" font-size="14.00">shared_ptr</text>
</g>
<!-- class_obstacle -->
<g id="node10" class="node">
<title>class_obstacle</title>
<polygon fill="#f2f2f2" stroke="black" points="303.5,-256.61 303.5,-292.61 421.5,-292.61 421.5,-256.61 303.5,-256.61"/>
<text text-anchor="middle" x="362.5" y="-270.91" font-family="Times,serif" font-size="14.00">class_obstacle</text>
</g>
<!-- class_obstacles_container&#45;&gt;class_obstacle -->
<g id="edge12" class="edge">
<title>class_obstacles_container&#45;&gt;class_obstacle</title>
<path fill="none" stroke="black" d="M604.51,-274.61C543.84,-274.61 471.28,-274.61 421.73,-274.61"/>
<polygon fill="none" stroke="black" points="604.87,-274.61 610.87,-270.61 616.87,-274.61 610.87,-278.61 604.87,-274.61"/>
<text text-anchor="middle" x="525.5" y="-278.41" font-family="Times,serif" font-size="14.00">vector&lt;shared_ptr&gt;</text>
</g>
</g>
</svg>
